REM DIRINDEX 1\2,1\3,1\4
REM DIRNAME cjc151,folder01,folder02,folder03
TITLE ""
FILE "139 139_TOEFL_3900.mp3" MP3
  TRACK 01 AUDIO
    TITLE "2:cjc151_6044"
    INDEX 01 00:00:00
  TRACK 02 AUDIO
    TITLE "0:"
    INDEX 01 00:01:05
  TRACK 03 AUDIO
    TITLE "3:cjc151_6045"
    INDEX 01 00:02:59
  TRACK 04 AUDIO
    TITLE "0:"
    INDEX 01 00:06:61
  TRACK 05 AUDIO
    TITLE "2:cjc151_6046"
    INDEX 01 00:08:38
  TRACK 06 AUDIO
    TITLE "0:"
    INDEX 01 00:09:71
  TRACK 07 AUDIO
    TITLE "3:cjc151_6047"
    INDEX 01 00:11:42
  TRACK 08 AUDIO
    TITLE "0:"
    INDEX 01 00:15:28
  TRACK 09 AUDIO
    TITLE "2:cjc151_6048"
    INDEX 01 00:17:04
  TRACK 10 AUDIO
    TITLE "0:"
    INDEX 01 00:18:15
  TRACK 11 AUDIO
    TITLE "3:cjc151_6049"
    INDEX 01 00:19:65
  TRACK 12 AUDIO
    TITLE "0:"
    INDEX 01 00:24:02
  TRACK 13 AUDIO
    TITLE "2:cjc151_6050"
    INDEX 01 00:25:56
  TRACK 14 AUDIO
    TITLE "0:"
    INDEX 01 00:26:71
  TRACK 15 AUDIO
    TITLE "3:cjc151_6051"
    INDEX 01 00:28:49
  TRACK 16 AUDIO
    TITLE "0:"
    INDEX 01 00:32:43
  TRACK 17 AUDIO
    TITLE "2:cjc151_6052"
    INDEX 01 00:34:22
  TRACK 18 AUDIO
    TITLE "0:"
    INDEX 01 00:35:37
  TRACK 19 AUDIO
    TITLE "3:cjc151_6053"
    INDEX 01 00:37:10
  TRACK 20 AUDIO
    TITLE "0:"
    INDEX 01 00:41:67
  TRACK 21 AUDIO
    TITLE "2:cjc151_6054"
    INDEX 01 00:43:46
  TRACK 22 AUDIO
    TITLE "0:"
    INDEX 01 00:44:63
  TRACK 23 AUDIO
    TITLE "3:cjc151_6055"
    INDEX 01 00:46:41
  TRACK 24 AUDIO
    TITLE "0:"
    INDEX 01 00:50:29
  TRACK 25 AUDIO
    TITLE "2:cjc151_6056"
    INDEX 01 00:52:06
  TRACK 26 AUDIO
    TITLE "0:"
    INDEX 01 00:53:23
  TRACK 27 AUDIO
    TITLE "3:cjc151_6057"
    INDEX 01 00:55:04
  TRACK 28 AUDIO
    TITLE "0:"
    INDEX 01 00:59:32
  TRACK 29 AUDIO
    TITLE "2:cjc151_6058"
    INDEX 01 01:01:11
  TRACK 30 AUDIO
    TITLE "0:"
    INDEX 01 01:02:34
  TRACK 31 AUDIO
    TITLE "3:cjc151_6059"
    INDEX 01 01:04:13
  TRACK 32 AUDIO
    TITLE "0:"
    INDEX 01 01:09:69
  TRACK 33 AUDIO
    TITLE "2:cjc151_6060"
    INDEX 01 01:11:47
  TRACK 34 AUDIO
    TITLE "0:"
    INDEX 01 01:12:71
  TRACK 35 AUDIO
    TITLE "3:cjc151_6061"
    INDEX 01 01:14:49
  TRACK 36 AUDIO
    TITLE "0:"
    INDEX 01 01:19:27
  TRACK 37 AUDIO
    TITLE "2:cjc151_6062"
    INDEX 01 01:21:04
  TRACK 38 AUDIO
    TITLE "0:"
    INDEX 01 01:22:29
  TRACK 39 AUDIO
    TITLE "3:cjc151_6063"
    INDEX 01 01:24:08
  TRACK 40 AUDIO
    TITLE "0:"
    INDEX 01 01:28:37
  TRACK 41 AUDIO
    TITLE "2:cjc151_6064"
    INDEX 01 01:30:17
  TRACK 42 AUDIO
    TITLE "0:"
    INDEX 01 01:31:39
  TRACK 43 AUDIO
    TITLE "3:cjc151_6065"
    INDEX 01 01:33:19
  TRACK 44 AUDIO
    TITLE "0:"
    INDEX 01 01:38:16
  TRACK 45 AUDIO
    TITLE "2:cjc151_6066"
    INDEX 01 01:39:68
  TRACK 46 AUDIO
    TITLE "0:"
    INDEX 01 01:41:10
  TRACK 47 AUDIO
    TITLE "3:cjc151_6067"
    INDEX 01 01:42:63
  TRACK 48 AUDIO
    TITLE "0:"
    INDEX 01 01:46:04
  TRACK 49 AUDIO
    TITLE "2:cjc151_6068"
    INDEX 01 01:47:56
  TRACK 50 AUDIO
    TITLE "0:"
    INDEX 01 01:48:58
  TRACK 51 AUDIO
    TITLE "3:cjc151_6069"
    INDEX 01 01:50:33
  TRACK 52 AUDIO
    TITLE "0:"
    INDEX 01 01:53:55
  TRACK 53 AUDIO
    TITLE "2:cjc151_6070"
    INDEX 01 01:55:34
  TRACK 54 AUDIO
    TITLE "0:"
    INDEX 01 01:58:36
  TRACK 55 AUDIO
    TITLE "3:cjc151_6071"
    INDEX 01 02:00:16
  TRACK 56 AUDIO
    TITLE "0:"
    INDEX 01 02:03:57
  TRACK 57 AUDIO
    TITLE "2:cjc151_6072"
    INDEX 01 02:05:36
  TRACK 58 AUDIO
    TITLE "0:"
    INDEX 01 02:06:48
  TRACK 59 AUDIO
    TITLE "3:cjc151_6073"
    INDEX 01 02:08:27
  TRACK 60 AUDIO
    TITLE "0:"
    INDEX 01 02:12:70
  TRACK 61 AUDIO
    TITLE "2:cjc151_6074"
    INDEX 01 02:14:49
  TRACK 62 AUDIO
    TITLE "0:"
    INDEX 01 02:15:60
  TRACK 63 AUDIO
    TITLE "3:cjc151_6075"
    INDEX 01 02:17:36
  TRACK 64 AUDIO
    TITLE "0:"
    INDEX 01 02:20:61
  TRACK 65 AUDIO
    TITLE "2:cjc151_6076"
    INDEX 01 02:22:39
  TRACK 66 AUDIO
    TITLE "0:"
    INDEX 01 02:23:60
  TRACK 67 AUDIO
    TITLE "3:cjc151_6077"
    INDEX 01 02:25:39
  TRACK 68 AUDIO
    TITLE "0:"
    INDEX 01 02:29:39
  TRACK 69 AUDIO
    TITLE "2:cjc151_6078"
    INDEX 01 02:31:16
  TRACK 70 AUDIO
    TITLE "0:"
    INDEX 01 02:34:01
  TRACK 71 AUDIO
    TITLE "3:cjc151_6079"
    INDEX 01 02:35:55
  TRACK 72 AUDIO
    TITLE "0:"
    INDEX 01 02:39:35
  TRACK 73 AUDIO
    TITLE "2:cjc151_6080"
    INDEX 01 02:41:15
  TRACK 74 AUDIO
    TITLE "0:"
    INDEX 01 02:42:43
  TRACK 75 AUDIO
    TITLE "3:cjc151_6081"
    INDEX 01 02:44:21
  TRACK 76 AUDIO
    TITLE "0:"
    INDEX 01 02:49:04
  TRACK 77 AUDIO
    TITLE "2:cjc151_6082"
    INDEX 01 02:50:59
  TRACK 78 AUDIO
    TITLE "0:"
    INDEX 01 02:51:66
  TRACK 79 AUDIO
    TITLE "3:cjc151_6083"
    INDEX 01 02:53:43
  TRACK 80 AUDIO
    TITLE "0:"
    INDEX 01 02:58:19
  TRACK 81 AUDIO
    TITLE "2:cjc151_6084"
    INDEX 01 02:59:71
  TRACK 82 AUDIO
    TITLE "0:"
    INDEX 01 03:01:23
  TRACK 83 AUDIO
    TITLE "3:cjc151_6085"
    INDEX 01 03:03:03
  TRACK 84 AUDIO
    TITLE "0:"
    INDEX 01 03:06:17
  TRACK 85 AUDIO
    TITLE "2:cjc151_6086"
    INDEX 01 03:07:67
  TRACK 86 AUDIO
    TITLE "0:"
    INDEX 01 03:09:15
  TRACK 87 AUDIO
    TITLE "3:cjc151_6087"
    INDEX 01 03:10:69
  TRACK 88 AUDIO
    TITLE "0:"
    INDEX 01 03:14:71
